<?xml version="1.0" encoding="UTF-8"?>
<svg width="31.141mm" height="23.115mm" version="1.1" viewBox="0 0 31.141 23.115" xmlns="http://www.w3.org/2000/svg" xmlns:xlink="http://www.w3.org/1999/xlink">
	<defs>
		<linearGradient id="linearGradient975" x1=".00031563" x2="31.142" y1="11.557" y2="11.557" gradientUnits="userSpaceOnUse">
			<stop stop-color="#b3b1ab" offset="0"/>
			<stop stop-color="#927e41" offset="1"/>
		</linearGradient>
	</defs>
	<path d="m19.965 2e-4c-0.35589-7.59e-4 -0.70878 0.03238-1.0578 0.0956l5.18e-4 -5.16e-4c-1.3962 0.25287-2.7336 0.98415-4.0158 1.9689-0.64779-0.0149-1.2123 0.2118-1.7363 0.52761-0.55114 0.33215-1.0785 0.72968-1.6738 0.98237-1.7639 0.7487-3.6434 1.3342-5.3806 2.1735l-0.0124-8e-3c-0.0043 7e-3 -0.0086 0.0135-0.01292 0.0202-1.1737 0.56922-2.2821 1.2553-3.2448 2.1869-0.29559 0.28606-0.39256 0.59638-0.63872 0.88884l-0.15813-0.0372c-0.02838 0.11981-0.04727 0.24508-0.07596 0.36535-1.2591 1.624-1.9931 3.3123-1.957 5.0529 0.04471 2.1567 0.95357 4.3508 2.3942 6.5004l-0.50953 2.3409 0.25787 0.0568 0.46767-2.1415c0.36928 0.2981 0.89847 0.2994 1.4444 0.22169 0.56869-0.081 1.1731-0.2535 1.6759-0.33021 0.95803-0.14647 2.0697-0.07 3.1543-0.1385 1.0847-0.0684 2.1527-0.28473 2.9998-1.0392 0.61214-0.54519 0.68357-1.402 0.75189-2.174 0.03416-0.38603 0.06764-0.75518 0.15244-1.0583 0.0848-0.30315 0.21495-0.53327 0.44545-0.67955 0.3632-0.23046 1.1697-0.24283 1.912-0.0765 0.37116 0.0832 0.72755 0.20556 1.0077 0.3514 0.28014 0.14585 0.4799 0.3187 0.55087 0.46509 0.04297 0.10237 0.0965 0.07086 0.14056 0.0724 0.67379-0.10875 1.2803 9e-3 1.9182 0.0956 0.6379 0.0863 1.3079 0.13917 2.0722-0.12868 2.9278-1.026 4.4634-4.1023 6.6657-5.9454 0.60857-0.50922 1.6437-1.2395 2.4551-2.096 0.40571-0.42826 0.7576-0.88887 0.971-1.3787 0.2134-0.48986 0.28587-1.014 0.12454-1.541-0.16515-0.53991-0.63921-1.0074-1.2692-1.4413-0.62996-0.43387-1.4228-0.83324-2.2484-1.2051-1.555-0.70039-3.2362-1.314-4.131-1.8474l5.19e-4 -5.19e-4 -0.15813-0.09767-0.0021-0.0015c-1.1158-0.69278-2.2127-0.99766-3.2804-0.99994zm-0.04548 0.27078c0.97269 0.0028 1.9688 0.27835 2.9957 0.8754l-6.6874 5.2343-6.0684 2.6934c0.15094-1.1174 0.93005-2.3639 1.9218-3.5393 1.0557-1.2511 2.2677-2.4051 2.9766-3.2613 1.2607-0.96769 2.5606-1.6742 3.8964-1.9162 0.31926-0.05782 0.64108-0.08724 0.96531-0.086299zm3.2644 1.002c0.72105 0.45297 1.9223 0.92718 3.1698 1.4521l-4.0266 2.8918-4.6943 0.91364c-0.30764-0.12302-0.67557-0.16168-0.94878-0.17156zm-8.6258 1.1544c-0.70955 0.80679-1.7174 1.797-2.6799 2.9378-1.0628 1.2596-1.983 2.6166-2.0614 3.8985l-3.1068 3.9052c-0.40124 0.33415-0.73041 0.88744-1.0464 1.45-0.30833 0.54887-0.59307 1.0044-0.87333 1.3808-0.14909-1.2131-0.15815-3.0183 0.07803-4.9258 0.25027-2.0214 0.72691-4.0205 1.3891-5.1031 1.7038-0.8174 3.5607-1.4028 5.3278-2.1528 0.63491-0.26948 1.1724-0.67785 1.7069-0.99993 0.40459-0.24383 0.83002-0.32859 1.2661-0.39068zm12.081 0.41858c0.26359 0.11224 0.5276 0.22581 0.78806 0.34313 0.81885 0.36882 1.6004 0.76193 2.2071 1.1798 0.13885 0.0956 0.26639 0.19303 0.38499 0.29094l-6.0539 1.0811-1.2139-0.1018zm3.6298 2.0371c0.26546 0.25945 0.45237 0.52398 0.5333 0.78858 0.14069 0.45961 0.0798 0.90983-0.11524 1.3575-0.17518 0.40213-0.46156 0.79818-0.80254 1.1751-1.0229-0.0663-1.9862-0.58902-2.9378-1.1457-0.83666-0.4894-1.6741-0.90435-2.5373-1.1291zm-7.8739 0.99167 1.5555 0.13022v5.2e-4c0.94167 0.12804 1.8811 0.70823 2.8613 1.2816 0.89357 0.52268 1.8242 1.0395 2.8407 1.1627-0.76813 0.77951-1.7232 1.4577-2.3192 1.9565-0.04308 0.036-0.08509 0.0732-0.12764 0.11007-1.2404-0.0514-3.0739-0.68376-4.8545-1.4795-1.6961-0.75799-3.2611-1.6365-4.3419-2.3105zm-16.557 0.30437c-0.60169 1.1877-1.0025 3.0143-1.2314 4.8638-0.25683 2.0744-0.28898 4.1644-0.08785 5.3986l-1.1462 2.8376c0.0025-0.45945-0.1373-0.92944-0.33641-1.4025-0.43379-1.0306-1.1397-2.0913-1.3281-3.0329-0.37926-1.8959 0.06222-3.7473 0.50023-5.5862 0.29311-0.37112 0.43133-0.75556 0.80667-1.1188 0.83947-0.8124 1.799-1.4352 2.8231-1.9596zm10.629 0.44442c0.25589 1e-4 0.75617 0.0206 1.0919 0.16278 1.0831 0.69454 2.8536 1.6737 4.6819 2.4908 1.6773 0.7496 3.3941 1.3644 4.6886 1.4852-0.7899 0.7312-1.4989 1.5838-2.2216 2.4097-1.4617 0.0258-3.131 0.32475-4.67-0.13333-2.6954-0.80231-6.6838-2.704-9.0889-4.0256l5.3774-2.3875c0.02637-9.1e-4 0.0743-2e-3 0.14056-2e-3zm-5.7707 2.5017-0.0217 0.0388c2.4024 1.3319 6.496 3.2982 9.2868 4.129 1.5275 0.45466 3.1321 0.20128 4.5077 0.14934-1.0806 1.2158-2.2153 2.335-3.7202 2.8624-0.70913 0.24851-1.3215 0.20022-1.9492 0.11524-0.59221-0.0802-1.2017-0.18444-1.8795-0.0982-0.06564-0.17053-0.1969-0.34221-0.37827-0.52864-0.21966-0.2258-0.51489-0.46983-0.8692-0.71882-0.70862-0.49801-1.6537-1.0205-2.682-1.4573-1.9236-0.8171-4.1412-1.3484-5.6808-0.7767l2.7197-3.4194zm-8.8692 0.66197c-0.38568 1.6576-0.7292 3.3498-0.37724 5.1092 0.20522 1.026 0.92343 2.0875 1.342 3.082 0.2093 0.49725 0.34152 0.97292 0.31419 1.4061-0.02351 0.37272-0.23904 0.70959-0.56224 1.0371-1.3655-2.0752-2.2372-4.1732-2.2794-6.211-0.03147-1.5183 0.58172-2.9873 1.5627-4.4235zm7.0171 3.0887c1.2467 0.0142 2.7151 0.42133 4.0432 0.98547 1.0119 0.42982 1.9435 0.94484 2.6329 1.4294 0.2102 0.14772 0.39756 0.29257 0.55811 0.43046-0.26392-0.11637-0.56345-0.21281-0.87282-0.28215-0.25488-0.0571-0.51545-0.0977-0.76843-0.11627-1.4203-0.20792-2.968-0.23843-4.4132-0.14314-1.4529 0.0958-2.8029 0.3185-3.8204 0.62115-0.44018 0.13092-0.79758 0.49751-1.0604 0.69918-0.13141 0.10084-0.23775 0.14263-0.25942 0.14056-0.01083-1e-3 -0.0139 2e-3 -0.03359-0.0253-0.01477-0.0206-0.03258-0.0604-0.04961-0.11989 0.38505-0.40539 0.72544-1.093 1.093-1.7472 0.30601-0.54475 0.63356-1.0589 0.96687-1.3544l0.0057 5e-3 0.02584-0.032c0.07587-0.064 0.15167-0.11704 0.22789-0.15555 0.47912-0.24206 1.0714-0.34229 1.7244-0.33486zm2.8438 2.5177c0.53158 2e-3 1.0643 0.0237 1.588 0.0656-0.06432 0.0271-0.12531 0.0579-0.18138 0.0935-0.29779 0.18897-0.46349 0.48906-0.55862 0.82527l-0.01964-0.0284c-2.3091 1.6072-4.0625 2.5962-7.0704 2.621l1e-3 0.13177-0.01085-0.13177s-0.4115 0.0357-0.99012 0.28112c-0.29921 0.12694-0.64581 0.311-1.0092 0.57567l1.2221-3.0293c0.05258 0.0585 0.12502 0.0989 0.19896 0.10594 0.17111 0.0164 0.30122-0.0826 0.44545-0.19327 0.28845-0.22134 0.63153-0.55425 0.97462-0.65629 1.3615-0.40496 3.3738-0.66976 5.41-0.66094zm0.77618 1.3131c-0.04321 0.25092-0.06673 0.51556-0.09043 0.78342-0.06823 0.771-0.14896 1.5411-0.66404 1.9999-0.78338 0.69774-1.7789 0.90562-2.8396 0.97255-1.0607 0.0669-2.1772-0.012-3.1781 0.14107-0.52904 0.0807-1.1315 0.2525-1.6738 0.3297-0.51928 0.0739-0.96448 0.0542-1.2392-0.16382 0.6286-0.68272 1.2718-1.0638 1.7704-1.2754 0.50546-0.21444 0.84974-0.25413 0.89865-0.2589v1e-3c2.9758-0.0246 4.7911-0.99629 7.0161-2.5296z" color="#000000" fill="url(#linearGradient975)"/>
</svg>
